<svg id="Layer_1" data-name="Layer 1" xmlns="http://www.w3.org/2000/svg" viewBox="0 0 759.359 586.419">
  <path d="M62.98,586.289A62.98,62.98,0,0,1,.063,520.522C2.135,473.658,31.919,406.494,113.1,345.835,225.739,261.671,151.474,69.5,299.333,49.428,542.368,16.444,496.391,232.159,646.459,310.805c95.525,50.062,112.893,148.015,112.9,212.6a62.939,62.939,0,0,1-62.977,62.88Z" fill="#f3f5fd"></path>
  <path d="M89.082,579.94c-19.8-6.139-39.022-14.16-56.531-36.609-3.593-4.6-6.969-10.494-5-16,1.481-4.144,5.768-6.8,10.124-7.476a21.008,21.008,0,0,1,4.9-.135c.008,0,.016.006.019,0a41.337,41.337,0,0,1,7.413,1.455l.692.2a122.117,122.117,0,0,1,32.669,14.755,4.811,4.811,0,0,0,6.7-6.55,29.034,29.034,0,0,0-3.58-4.7,46.1,46.1,0,0,0-6.514-5.649c-3.113-2.271-6.436-4.3-9.686-6.373a268.34,268.34,0,0,1-34.241-25.876c-7.64-6.806-15.112-14.359-18.743-23.927-1.668-4.4-2.428-9.473-.438-13.737,3.284-7,12.587-8.963,20.194-7.51,13.33,2.553,23.979,12.324,33.422,22.064,7.831,8.093,16.605,17.053,27.856,17.551a9.852,9.852,0,0,0,5.547-1.113c3.209-1.944,4.034-6.448,2.891-10.024s-3.791-6.433-6.347-9.177C85.578,445.171,70.963,428.6,61.32,409.075s-13.915-42.571-7.214-63.3c1.965-6.06,4.917-11.956,9.522-16.358s11.063-7.163,17.385-6.32c8.613,1.134,15.1,8.4,19.464,15.908,15,25.754,14.084,57.309,18.308,86.809,1.183,8.259,2.9,16.729,7.82,23.527a5.587,5.587,0,0,0,1.726,1.61c4.048,2.344,7.681-2.383,9.2-6.394,6-15.869,7.5-34.017,18.243-47.151,4.1-5,9.9-9.178,16.365-9.137,7.894.054,14.654,6.648,16.958,14.2s.926,15.756-1.543,23.255c-4.582,13.906-12.794,26.4-22.471,37.38-5.1,5.8-10.871,11.655-12.4,19.218a15.332,15.332,0,0,0,4.813,14.134,8.988,8.988,0,0,0,6.654,2.176c2.592-.238,4.937-1.559,7.195-2.844.949-.54,1.9-1.088,2.857-1.626q5.661-3.222,11.322-6.452c9.595-5.474,21.181-11.067,31.176-6.353,5.1,2.41,8.441,7.148,10.012,12.586a27.532,27.532,0,0,1,0,15.1c-2.978,10.263-21.742,38.822-29.481,46.187C188.2,563.834,156.85,600.942,89.082,579.94Z" fill="#8ddbe0"></path>
  <g>
    <g>
      <rect x="176.584" y="8.823" width="313.451" height="568.772" rx="34.026" transform="translate(666.62 586.419) rotate(-180)" fill="#fff"></rect>
      <path d="M167.761,543.569V42.85A42.9,42.9,0,0,1,210.611,0h245.4a42.9,42.9,0,0,1,42.85,42.85V543.569a42.9,42.9,0,0,1-42.85,42.85h-245.4A42.9,42.9,0,0,1,167.761,543.569Zm42.85-525.923a25.232,25.232,0,0,0-25.2,25.2V543.569a25.231,25.231,0,0,0,25.2,25.2h245.4a25.231,25.231,0,0,0,25.2-25.2V42.85a25.232,25.232,0,0,0-25.2-25.2Z" fill="#dee8f5"></path>
    </g>
    <path d="M295.185,8.823h76.25A15.607,15.607,0,0,1,387.041,24.43V45.279a0,0,0,0,1,0,0H279.578a0,0,0,0,1,0,0V24.43A15.607,15.607,0,0,1,295.185,8.823Z" transform="translate(666.62 54.103) rotate(-180)" fill="#dee8f5"></path>
  </g>
  <g>
    <g>
      <g>
        <path d="M656.728,175.458s-7.915-4.2-6.148-25.75l-16.354-3.033s1.838,19.325-6.435,25.46Z" fill="#E98862"></path>
        <path d="M631.141,168.1,644.727,157.7l-10.67-.111A29.417,29.417,0,0,1,631.141,168.1Z" opacity="0.15"></path>
        <path d="M659.859,141.35c-1.132,6.539-4.7,12.732-10.469,14.844a41.455,41.455,0,0,1-19.815,2.677c-17.9-1.468-14.361-42.174-5.861-50.081s33.444-2.9,36.478,10.325C661.761,125.955,660.936,135.126,659.859,141.35Z" fill="#E98862"></path>
        <path d="M649.621,155.413c.34,1.087.577,1.561,1.557.979,3.845-2.284,11.474-7.255,14.422-25.879,2.641-16.687-7.653-23.57-15.862-26.025-7.076-2.117-23.591-2.553-31.342,2.119-6.679,4.026,0,13.39,0,13.39,2.952.136,3.547,2.673,10.511,2.673,5.384,0,3.5-.2,8.543-.16,8.97.073,6.072,6.669,5.909,8.469-.468,5.15,3.395,7.877,3.98,12.182A83.094,83.094,0,0,0,649.621,155.413Z" fill="#0f1011"></path>
        <path d="M641.965,138.459a6.288,6.288,0,1,0,12.534,1.028,6.186,6.186,0,0,0-5.753-6.781C644.264,132.56,642.249,135,641.965,138.459Z" fill="#E98862"></path>
        <path d="M644.727,118.513l4.63,1.695s-1.642,23.131-2.937,29.455-4.921,10.44-9.029,10.792c-6.309.541-10.88.584-15.508-1.07-5.218-1.865-4.487-15.871-4.487-15.871s16.792,1.819,21.438-.412S644.727,118.513,644.727,118.513Z" fill="#0f1011"></path>
        <g>
          <circle cx="634.25" cy="134.83" r="1.483" fill="#0f1011"></circle>
          <circle cx="622.548" cy="133.87" r="1.483" fill="#0f1011"></circle>
          <line x1="623.907" y1="129.963" x2="619.978" y2="130.013" fill="none" stroke="#0f1011" stroke-linecap="round" stroke-miterlimit="10" stroke-width="1.394"></line>
          <line x1="637.45" y1="131.445" x2="633.576" y2="130.513" fill="none" stroke="#0f1011" stroke-linecap="round" stroke-miterlimit="10" stroke-width="1.394"></line>
        </g>
        <g opacity="0.15">
          <path d="M627.665,143.056a.524.524,0,0,1-.15-.022l-3.57-1.1a.512.512,0,0,1-.317-.7l2.348-5.228a.512.512,0,0,1,.934.419l-2.111,4.7,3.017.926a.512.512,0,0,1-.151,1Z"></path>
        </g>
      </g>
      <path d="M658.658,109.073s-4.835,6.105-22.787-6.111-24.68-3.358-24.68,2.049-2.948,17.572,15.64,17.572" fill="#0f1011"></path>
      <path d="M632.355,149.5s-5.285-1-9.129,0c0,0,.318-3.509,4.565-3.509S632.355,149.5,632.355,149.5Z" fill="#fff"></path>
    </g>
    <g>
      <path d="M525.144,219.911s-5.88-6.979-12.136-8.085-4.694,2.493-.977,5.178,12.1,8.091,12.1,8.091" fill="#E98862"></path>
      <path d="M520.839,217.792s-11.672-4.747-16.675-2.6c0,0-4.361,4.279-.087,9.9,4.1,5.391,14.8,7.393,14.8,7.393Z" fill="#E98862"></path>
    </g>
    <g>
      <path d="M588.312,575.47l20.854-2.481c-.939-7.892-2-17.373-2.072-18.928,0,.1,0,.182,0,.246h-21C586.1,554.936,586.1,556.851,588.312,575.47Z" fill="#E98862"></path>
      <path d="M671.988,577.979l21-.068s-.071-21.685-.071-23.6h-21C671.917,556.232,671.988,577.979,671.988,577.979Z" fill="#E98862"></path>
      <path d="M617.56,568.838l-36.995-.63c1.538-38.963,1.8-83.528,2.213-123.855a234.035,234.035,0,0,1,2.26-29.872c5.952-42.723,9.835-85.2,17.848-127.679l.267.079.782-5.33,76.077-4.695,3.96,49.7s9.909,171.947,14.428,241.085l-36.868,3.115c-6.643-67.786-16.924-166.556-23.246-237.767-7.261,34.67-12.2,70.568-18.514,104.941C618.508,480.961,617.442,525.94,617.56,568.838Z" fill="#262626"></path>
      <path d="M646.46,586.1a4.108,4.108,0,0,1-4.077-4.427h0a4.107,4.107,0,0,1,2.659-3.529l24.442-8.187a3.463,3.463,0,0,1,2.873.32,19.112,19.112,0,0,0,11.468,3.4,17.027,17.027,0,0,0,8.82-3.223,1.547,1.547,0,0,1,2.527,1.2v11.952a2.678,2.678,0,0,1-2.689,2.678Z" fill="#c1d8ed"></path>
      <path d="M562.726,586.1a4.107,4.107,0,0,1-4.076-4.427h0a4.106,4.106,0,0,1,2.658-3.529l24.443-8.187a3.461,3.461,0,0,1,2.872.32,19.112,19.112,0,0,0,11.468,3.4,17.024,17.024,0,0,0,8.82-3.223,1.547,1.547,0,0,1,2.528,1.2v11.952a2.678,2.678,0,0,1-2.689,2.678Z" fill="#c1d8ed"></path>
    </g>
    <path d="M576.583,254.639a10.5,10.5,0,0,0,9.042-5.16l36.158-61.194L603.7,177.6l-31.809,53.834-50.27-17.195-6.8,19.869,58.359,19.963A10.481,10.481,0,0,0,576.583,254.639Z" fill="#58468C"></path>
    <path d="M599,284.9c4.19,9.63,86.52,13.63,87.62-3.31.7-10.78-8.8-20.19-8.8-41.2s19.33-47.84,3.58-63.59c-4.57-4.57-12.46-7.52-22.08-7.53-.72,5.61-34.78,5.63-35.04.13-1.3.02-2.31.04-2.94.07-33.18,1.43-18.6,39.19-18.28,66.93C603.446,268.859,594.676,274.979,599,284.9Z" fill="#58468C"></path>
    <path d="M604.211,296.951a9.9,9.9,0,0,0-.2-14.337l-93.929-86.963a10,10,0,0,0-14.565,1.068,10.23,10.23,0,0,0,1.254,13.862l93.8,86.572a9.9,9.9,0,0,0,13.641-.2Z" fill="#FF4800"></path>
    <path d="M600.839,192.456a9.9,9.9,0,0,0-14.336.2L499.54,286.586a10,10,0,0,0,1.068,14.565A10.229,10.229,0,0,0,514.47,299.9l86.572-93.8a9.9,9.9,0,0,0-.2-13.641Z" fill="#FF4800"></path>
    <path d="M624.276,169.4c.26,5.5,3.25,13.59,12.48,14.2,12.3.81,21.84-8.72,22.56-14.33h-.03C647.176,169.269,631.336,169.289,624.276,169.4Z" fill="#E98862"></path>
    <g>
      <path d="M596.312,246.391s2.315-13.171-7.206-14.26c-6.008-.687-21.109-9.037-23.974-2.058-2.486,6.055,11.937,13.263,17.1,14.6C586.855,245.862,596.312,246.391,596.312,246.391Z" fill="#E98862"></path>
      <path d="M592.352,233.18s-12.269-6.728-15.626-6.571c-2.972.139,2.083,5.888,2.083,5.888Z" fill="#E98862"></path>
    </g>
    <path d="M645.775,267.942a10.9,10.9,0,0,0,9.954-6.458l30.551-68.4-19.909-8.893-26.618,59.6-51.245-15.728-6.4,20.843,60.465,18.559A10.881,10.881,0,0,0,645.775,267.942Z" fill="#58468C"></path>
    <path d="M498.2,217.3a2.027,2.027,0,0,1,.175-2.524c1.516-1.639,4.33-4.238,6.182-3.277,2.641,1.369,7.924,6.456,6.456,9.1s-4.5,5.546-6.46,4.666C503.07,224.6,499.892,219.764,498.2,217.3Z" fill="#E98862"></path>
  </g>
  <g>
    <rect x="342.045" y="382.358" width="96.809" height="41.45" transform="translate(780.9 806.167) rotate(-180)" fill="#c1d8ed"></rect>
    <rect x="227.766" y="382.358" width="96.809" height="41.45" transform="translate(552.34 806.167) rotate(-180)" fill="#FF4800"></rect>
  </g>
  <g>
    <path d="M263.46,194.5a69.568,69.568,0,0,0,19.52,48.42c9.42-21.05,28.43-35.42,50.32-35.42,21.91,0,40.92,14.39,50.34,35.44A69.854,69.854,0,1,0,263.46,194.5Z" fill="#c1d8ed"></path>
    <circle cx="333.311" cy="174.041" r="27.655" fill="#f3f5fd"></circle>
    <path d="M282.98,242.92a69.84,69.84,0,0,0,100.66.02c-9.42-21.05-28.43-35.44-50.34-35.44C311.41,207.5,292.4,221.87,282.98,242.92Z" fill="#f3f5fd"></path>
  </g>
  <g>
    <rect x="227.766" y="291.995" width="211.089" height="8.429" transform="translate(666.62 592.419) rotate(-180)" fill="#dee8f5"></rect>
    <rect x="227.766" y="314.943" width="211.089" height="8.429" transform="translate(666.62 638.314) rotate(-180)" fill="#dee8f5"></rect>
    <rect x="342.045" y="338.677" width="96.809" height="8.429" transform="translate(780.9 685.782) rotate(-180)" fill="#dee8f5"></rect>
  </g>
</svg>